<?xml version="1.0" encoding="iso-8859-1"?>
<!-- Generator: Adobe Illustrator 19.0.0, SVG Export Plug-In . SVG Version: 6.00 Build 0)  -->
<svg version="1.1" id="Layer_1" xmlns="http://www.w3.org/2000/svg" xmlns:xlink="http://www.w3.org/1999/xlink" x="0px" y="0px"
	 viewBox="0 0 496 496" style="enable-background:new 0 0 496 496;" xml:space="preserve">
<g>
	<path style="fill:#F9BA48;" d="M217.192,280H0v96h293.2C252.888,360.584,223.08,324.12,217.192,280z"/>
	<path style="fill:#F9BA48;" d="M454.808,280c-5.896,44.12-35.696,80.584-76.008,96H496v-96H454.808z"/>
</g>
<g>
	<path style="fill:#333333;" d="M472,104H144V72H32v32h-8c-13.232,0-24,10.768-24,24v272c0,13.232,10.768,24,24,24h448
		c13.232,0,24-10.768,24-24V128C496,114.768,485.232,104,472,104z M48,88h80v16H48V88z M480,400c0,4.416-3.584,8-8,8H24
		c-4.416,0-8-3.584-8-8V128c0-4.416,3.584-8,8-8h8h112h328c4.416,0,8,3.584,8,8V400z"/>
	<path style="fill:#333333;" d="M336,136c-70.576,0-128,57.424-128,128s57.424,128,128,128s128-57.424,128-128S406.576,136,336,136z
		 M336,376c-61.76,0-112-50.24-112-112s50.24-112,112-112s112,50.24,112,112S397.76,376,336,376z"/>
	<path style="fill:#333333;" d="M128,136H64c-17.648,0-32,14.352-32,32s14.352,32,32,32h64c17.648,0,32-14.352,32-32
		S145.648,136,128,136z M128,184H64c-8.824,0-16-7.176-16-16s7.176-16,16-16h64c8.824,0,16,7.176,16,16S136.824,184,128,184z"/>
	<path style="fill:#333333;" d="M336,184c-44.112,0-80,35.888-80,80s35.888,80,80,80s80-35.888,80-80S380.112,184,336,184z M336,328
		c-35.288,0-64-28.712-64-64s28.712-64,64-64s64,28.712,64,64S371.288,328,336,328z"/>
</g>
<g>
</g>
<g>
</g>
<g>
</g>
<g>
</g>
<g>
</g>
<g>
</g>
<g>
</g>
<g>
</g>
<g>
</g>
<g>
</g>
<g>
</g>
<g>
</g>
<g>
</g>
<g>
</g>
<g>
</g>
</svg>
