<?xml version="1.0" encoding="iso-8859-1"?>
<!-- Generator: Adobe Illustrator 19.0.0, SVG Export Plug-In . SVG Version: 6.00 Build 0)  -->
<svg version="1.1" id="Layer_1" xmlns="http://www.w3.org/2000/svg" xmlns:xlink="http://www.w3.org/1999/xlink" x="0px" y="0px"
	 viewBox="0 0 512.013 512.013" style="enable-background:new 0 0 512.013 512.013;" xml:space="preserve">
<g>
	<g>
		<g>
			<path d="M464.93,128.006h-80.917c-0.597,0-1.109-0.021-1.557-0.043c-1.216-23.701-21.184-42.624-45.525-42.624H175.095
				c-24.256,0-44.139,18.709-45.547,42.624c-0.448,0.021-0.96,0.043-1.536,0.043H47.095c-26.411,0-47.083,18.731-47.083,42.667v128
				h77.973c1.771-1.259,7.36-11.584,7.36-21.333v-32.555c0-29.099,24.085-52.779,53.696-52.779h31.637
				c0.149,0,0.299,0.085,0.469,0.085c19.477-25.792,50.112-42.752,84.864-42.752s65.365,16.96,84.864,42.752
				c0.171,0,0.299-0.085,0.469-0.085h31.616c29.632,0,53.717,23.68,53.717,52.779v32.555c0,9.749,5.568,20.075,8.363,21.525
				l76.971-0.107V170.673C512.013,146.737,491.32,128.006,464.93,128.006z"/>
			<path d="M384,277.34v-32.555c0-5.589-4.949-10.112-11.029-10.112h-12.459c1.408,6.891,2.155,14.037,2.155,21.333
				c0,58.816-47.851,106.667-106.667,106.667s-106.667-47.851-106.667-106.667c0-7.296,0.747-14.443,2.155-21.333h-12.437
				c-6.08,0-11.051,4.523-11.051,10.112v32.555c0,26.837-17.365,64-50.005,64H0v40.427c0,24.768,20.459,44.907,45.611,44.907h420.8
				c25.131,0,45.589-20.139,45.589-44.907V341.34h-77.973C401.387,341.34,384,304.177,384,277.34z"/>
			<path d="M320.006,256.006c0-35.285-28.715-64-64-64s-64,28.715-64,64s28.715,64,64,64S320.006,291.292,320.006,256.006z"/>
		</g>
	</g>
</g>
<g>
</g>
<g>
</g>
<g>
</g>
<g>
</g>
<g>
</g>
<g>
</g>
<g>
</g>
<g>
</g>
<g>
</g>
<g>
</g>
<g>
</g>
<g>
</g>
<g>
</g>
<g>
</g>
<g>
</g>
</svg>
